<svg width="43" height="34" viewBox="0 0 43 34" fill="none" xmlns="http://www.w3.org/2000/svg">
<path d="M39.5095 10.5205C39.3397 9.24373 39.3158 7.04471 40.5016 6.30631C40.5228 6.29277 40.5386 6.27322 40.5572 6.25642C41.5267 5.94632 42.1976 5.51113 41.671 4.92552L27.3691 0.616211L4.21107 3.83591C4.21107 3.83591 1.55919 4.21495 1.79609 8.33499C1.92469 10.5774 2.62799 11.6787 3.24305 12.2206L1.34272 12.7933C0.815278 13.3789 1.48611 13.8143 2.45577 14.1239C2.47419 14.1412 2.48974 14.1606 2.51129 14.1741C3.69641 14.9131 3.6736 17.1119 3.50313 18.3889C-0.754392 19.5979 0.773915 19.9918 0.773915 19.9918L1.70785 20.2178C1.05092 20.8114 0.398513 21.9372 0.520722 24.0721C0.757746 28.1914 2.93596 28.4757 2.93596 28.4757L18.0904 33.4015L40.9643 27.861C40.9643 27.861 42.4931 27.4664 38.2344 26.2574C38.0632 24.9824 38.0394 22.7838 39.2273 22.0429C39.2491 22.0298 39.265 22.0098 39.2827 21.9933C40.2523 21.6832 40.9227 21.2484 40.3958 20.6628L39.4016 20.3626C40.0647 19.9627 41.0607 18.9178 41.2167 16.2033C41.3244 14.3362 40.8373 13.2427 40.2735 12.5989L42.2386 12.1234C42.2388 12.1241 43.7676 11.7295 39.5095 10.5205ZM20.3769 10.4677L24.2235 9.67717L37.2225 7.00585L39.1592 6.60751C38.5404 7.74011 38.5663 9.29011 38.6687 10.2863C38.6912 10.5117 38.717 10.7175 38.7421 10.874L36.6223 11.401L20.2152 15.4826L20.3769 10.4677ZM3.85384 14.4766L5.79027 14.8749L18.2741 17.4412L19.3647 17.6646L22.6352 18.3368L22.7966 23.3518L5.93366 19.1564L4.27124 18.7433C4.29568 18.5866 4.3215 18.381 4.34494 18.155C4.44672 17.1596 4.47316 15.6092 3.85384 14.4766ZM3.10153 8.1367C3.0781 7.04082 3.27338 6.24827 3.66808 5.84542C3.91927 5.58821 4.21571 5.53469 4.41901 5.53469C4.52643 5.53469 4.60377 5.54961 4.60903 5.54961L14.5872 8.80265L19.5655 10.4257L19.4021 15.4757L5.43617 11.5602L4.69916 11.3538C4.67208 11.3461 4.63536 11.3409 4.60703 11.3396C4.5495 11.3355 3.16872 11.2084 3.10153 8.1367ZM18.1265 31.2136L3.42392 27.0915C3.39672 27.0836 3.36037 27.0784 3.33204 27.077C3.2735 27.0731 1.8921 26.9461 1.82529 23.8752C1.80148 22.778 1.99776 21.9862 2.39172 21.5829C2.64353 21.3257 2.94009 21.2722 3.14302 21.2722C3.25069 21.2722 3.32778 21.2866 3.33342 21.2866C3.33342 21.2866 3.33405 21.2866 3.33342 21.2866L18.2888 26.1635L18.1265 31.2136ZM37.3924 26.0235C37.4156 26.2496 37.4414 26.455 37.4664 26.6117L18.9392 31.2207L19.1012 26.2057L23.0622 25.3914L23.6471 25.5329L25.8396 24.8203L35.9462 22.7435L37.8836 22.3449C37.2641 23.4774 37.2898 25.028 37.3924 26.0235ZM38.4129 19.2079C38.3792 19.2087 38.3455 19.2132 38.3138 19.2232L36.9164 19.6144L23.6115 23.3451L23.4488 18.2952L27.814 16.8714L38.3838 13.4243C38.3852 13.4237 38.9399 13.3005 39.347 13.7145C39.741 14.1173 39.9366 14.9099 39.9135 16.0058C39.8446 19.0764 38.4632 19.204 38.4129 19.2079Z" fill="white"/>
</svg>
